<svg width="592" height="418" viewBox="0 0 592 418" fill="none" xmlns="http://www.w3.org/2000/svg">
<g clip-path="url(#clip0_1_3)">
<path d="M521.47 226.95C530.36 228.96 538.29 226.92 545.39 221.31C551.31 216.63 557.06 208.58 565.3 208.61C574.76 208.64 579.88 216.39 578.59 225.18C577.38 233.49 571.7 241.88 563.83 245.16C560.32 246.63 561.86 252.43 565.42 250.94C580.31 244.73 594.54 218.15 577.26 206.39C568.65 200.53 559.06 202.2 551.28 208.28C542.34 215.27 535.71 224.04 523.05 221.18C519.28 220.33 517.69 226.11 521.46 226.96" fill="black"/>
<path d="M130.04 282.7C178.21 276.99 226.76 274.34 278.95 272.38C275.72 268.92 273.87 264.37 273.74 259.46C273.74 259.46 273.74 259.45 273.74 259.43C222.24 261.42 174.19 264.14 126.32 269.92C123.29 270.28 120.17 270.64 117.01 271.01C82.48 275.03 39.5 280.05 9.77 301.29C6.81 303.38 6.13 307.49 8.23 310.44C9.33 311.97 10.96 312.89 12.68 313.13C14.29 313.35 15.96 312.99 17.4 311.96C44.37 292.69 83.76 288.1 118.53 284.05C120.92 283.77 123.27 283.5 125.59 283.22" fill="black"/>
<path d="M65.44 197.03C65.26 195.91 65.14 194.74 65.08 193.51C64.14 173.76 79.74 151.65 106.59 150.38C112.83 150.08 118.67 151.09 123.84 153.15L127.31 154.74C137.79 160.22 144.78 170.39 145.37 182.82C145.98 195.7 139.76 208.64 129.52 215.78C120.22 222.28 108.72 223.41 96.95 219.07L87.83 245.28C87.33 246.72 86.42 247.92 85.25 248.8C84.09 249.67 82.67 250.2 81.15 250.27C75.88 250.52 72.03 245.36 73.77 240.37L79.17 224.88L86.44 204.01L94.2 181.74C95.32 178.58 96.99 175.6 99.11 173.01C101.13 170.55 103.56 168.33 107 169.17C108.98 169.66 110.67 171.08 111.61 172.88C112.69 174.93 112.79 177.46 111.94 179.61C111.49 180.75 110.67 181.71 110.07 182.79C109.43 183.94 108.86 185.14 108.42 186.39L100.95 207.6C109.72 210.68 116.14 208.22 120.07 205.49C126.67 200.89 130.85 192.25 130.45 183.99C130.3 180.88 129.5 177.8 128.08 175C125.18 169.3 119.7 164.8 111.88 163.79C110.37 163.58 108.78 163.52 107.1 163.6C88.68 164.48 78.14 181 78.69 192.45C78.73 193.27 78.83 194.09 78.99 194.86C79.45 197.27 78.49 199.75 76.59 201.32C75.37 202.32 73.97 202.83 72.58 202.9C69.27 203.06 66.02 200.77 65.43 197.05" fill="black"/>
<path d="M400.8 161.52C401.03 166.42 405.16 170.22 410 169.99C414.9 169.76 418.7 165.58 418.46 160.68C418.23 155.84 414.06 152.09 409.16 152.33C404.24 152.56 400.57 156.6 400.8 161.52Z" fill="black"/>
<path d="M492.92 273.07C491.54 273.07 490.33 273.95 489.87 275.24C479.99 303.25 463.87 328.88 442.53 350.22C404.73 388.02 354.46 408.84 300.99 408.84C247.52 408.84 197.26 388.02 159.45 350.22C143.02 333.78 129.67 314.8 119.9 294.16C119.28 292.86 117.89 292.11 116.47 292.35C116.45 292.35 116.43 292.35 116.4 292.35C114.3 292.71 113.09 294.96 114 296.89C124.08 318.22 137.86 337.84 154.84 354.81C193.88 393.85 245.78 415.34 300.99 415.34C356.2 415.34 408.1 393.84 447.14 354.81C469.16 332.81 485.82 306.36 496 277.43C496.75 275.3 495.19 273.07 492.93 273.07" fill="black"/>
<path d="M195.87 282.72C195.19 281.76 194.05 281.23 192.88 281.37C192.86 281.37 192.83 281.37 192.81 281.37C190.39 281.65 189.14 284.43 190.55 286.42C194.98 292.7 199.97 298.62 205.51 304.15C231.01 329.65 264.92 343.7 300.99 343.7C337.06 343.7 370.98 329.65 396.48 304.15C404.44 296.19 411.3 287.43 416.96 277.97C418.26 275.81 416.67 273.06 414.15 273.06C413.01 273.06 411.96 273.66 411.37 274.64C405.97 283.64 399.46 291.96 391.87 299.54C367.6 323.82 335.33 337.19 300.98 337.19C266.63 337.19 234.37 323.81 210.1 299.55C204.84 294.28 200.08 288.66 195.87 282.7" fill="black"/>
<path d="M411.36 142.69C411.95 143.67 412.99 144.27 414.14 144.27C416.67 144.27 418.24 141.51 416.94 139.34C411.28 129.9 404.44 121.15 396.48 113.19C370.98 87.69 337.06 73.64 300.99 73.64C264.92 73.64 231.01 87.69 205.51 113.19C197.55 121.15 190.7 129.9 185.04 139.35C183.74 141.51 185.31 144.27 187.83 144.27C188.97 144.27 190.02 143.67 190.61 142.69C195.9 133.9 202.25 125.72 209.63 118.27C232.1 95.57 262.38 81.92 294.28 80.31C331.11 78.45 366.03 91.94 391.88 117.79C399.47 125.37 405.98 133.7 411.38 142.68" fill="black"/>
<path d="M109.05 144.28C110.43 144.28 111.65 143.4 112.1 142.11C121.97 114.11 138.11 88.47 159.44 67.13C197.25 29.33 247.52 8.51 300.98 8.51C354.44 8.51 404.72 29.33 442.52 67.13C463.85 88.46 479.99 114.09 489.86 142.1C490.32 143.4 491.54 144.28 492.92 144.28C495.18 144.28 496.74 142.05 495.99 139.92C485.81 111.01 469.15 84.56 447.13 62.54C408.09 23.5 356.2 2 300.98 2C245.76 2 193.87 23.5 154.83 62.53C132.81 84.55 116.15 111.01 105.98 139.92C105.23 142.04 106.79 144.27 109.04 144.27" fill="black"/>
<path d="M269.75 290.86H269.79C270.14 292.45 270.64 294.17 271.22 296.05L273.22 302.4H274.43L276.62 295.93C277.24 294.09 277.76 292.43 278.18 290.86H278.24C278.22 292.52 278.33 294.76 278.42 296.62L278.73 302.48H280.29L279.52 289.14H277.48L275.27 295.59C274.72 297.27 274.28 298.74 273.96 300.09H273.91C273.6 298.7 273.17 297.24 272.66 295.59L270.55 289.14H268.51L267.65 302.48H269.18L269.51 296.76C269.62 294.76 269.71 292.52 269.75 290.86Z" fill="black"/>
<path d="M291.37 290.59V289.14H284.68V302.48H291.65V301.04H286.28V296.23H291.09V294.8H286.28V290.59H291.37Z" fill="black"/>
<path d="M296.53 302.48L298.02 299.55C298.66 298.38 299.01 297.67 299.36 296.9H299.4C299.79 297.67 300.19 298.4 300.83 299.53L302.41 302.48H304.27L300.41 295.63L304.18 289.14H302.34L300.65 292.27C300.19 293.12 299.88 293.73 299.53 294.53H299.47C299.14 293.82 298.79 293.14 298.33 292.27L296.69 289.14H294.83L298.47 295.73L294.68 302.48H296.52H296.53Z" fill="black"/>
<path d="M309.64 289.14H308.04V302.48H309.64V289.14Z" fill="black"/>
<path d="M320.14 290.37C321.17 290.37 322.03 290.61 322.64 290.92L323.03 289.51C322.61 289.27 321.63 288.92 320.09 288.92C316.25 288.92 313.62 291.75 313.62 295.93C313.62 300.11 316.25 302.68 319.74 302.68C321.25 302.68 322.42 302.36 323.01 302.05L322.68 300.68C322.04 301.02 321.04 301.23 320.07 301.23C317.06 301.23 315.31 299.13 315.31 295.87C315.31 292.36 317.24 290.37 320.15 290.37" fill="black"/>
<path d="M337.13 295.68C337.13 291.72 334.94 288.93 331.56 288.93C328.18 288.93 325.8 291.7 325.8 295.94C325.8 300.18 328.1 302.71 331.37 302.71C334.64 302.71 337.13 300.28 337.13 295.68ZM327.51 295.89C327.51 292.96 328.84 290.33 331.48 290.33C334.12 290.33 335.43 293.1 335.43 295.75C335.43 298.78 334 301.29 331.46 301.29C328.92 301.29 327.51 298.74 327.51 295.89Z" fill="black"/>
<path d="M248.54 128.38V116.5H252.32V115.04H243.15V116.5H246.92V128.38H248.54Z" fill="black"/>
<path d="M257.21 115.04H255.61V128.38H257.21V115.04Z" fill="black"/>
<path d="M262.17 127.13C261.64 127.13 261.16 127.01 260.83 126.87L260.59 128.28C260.99 128.46 261.71 128.6 262.3 128.6C264.43 128.6 266.05 127.51 266.05 123.97V115.04H264.45V123.83C264.45 126.45 263.6 127.14 262.17 127.14" fill="black"/>
<path d="M270.61 115.04V122.9C270.61 127.04 272.52 128.6 275.06 128.6C277.74 128.6 279.75 126.92 279.75 122.82V115.04H278.13V122.94C278.13 125.89 276.95 127.2 275.11 127.2C273.46 127.2 272.22 125.93 272.22 122.94V115.04H270.6H270.61Z" fill="black"/>
<path d="M282.88 128.38H284.53L285.82 124.18H290.22L291.55 128.38H293.26L289.03 115.04H287.1L282.89 128.38H282.88ZM287.99 116.56H288.03C288.22 117.33 288.4 118.12 288.68 119L289.89 122.84H286.16L287.37 118.98C287.61 118.17 287.81 117.36 288 116.56" fill="black"/>
<path d="M300.73 121.61L304.67 128.38H306.29V115.04H304.78V120.62C304.78 122.7 304.82 124.32 304.96 126.1L304.92 126.12C304.33 124.75 303.61 123.35 302.69 121.78L298.72 115.03H296.97V128.37H298.48V122.67C298.48 120.46 298.44 118.85 298.35 117.17L298.41 117.15C299.03 118.6 299.86 120.12 300.73 121.6" fill="black"/>
<path d="M310.05 128.38H311.7L312.99 124.18H317.39L318.72 128.38H320.43L316.2 115.04H314.27L310.06 128.38H310.05ZM315.16 116.56H315.2C315.39 117.33 315.57 118.12 315.85 119L317.06 122.84H313.33L314.54 118.98C314.78 118.17 314.98 117.36 315.17 116.56" fill="black"/>
<path d="M337.32 118.26C337.32 117.21 336.93 116.42 336.29 115.9C335.52 115.23 334.49 114.93 332.89 114.93C331.77 114.93 330.66 115.05 329.97 115.21V128.34C330.5 128.42 331.35 128.5 332.45 128.5C334.47 128.5 335.87 128.11 336.74 127.25C337.36 126.6 337.79 125.73 337.79 124.58C337.79 122.6 336.41 121.55 335.23 121.24V121.2C336.54 120.69 337.33 119.56 337.33 118.27M336.08 124.56C336.08 126.5 334.55 127.15 332.9 127.15C332.33 127.15 331.87 127.13 331.56 127.07V121.99H332.88C334.63 121.99 336.08 122.74 336.08 124.56ZM333.01 120.68H331.56V116.38C331.82 116.32 332.24 116.26 332.98 116.26C334.6 116.26 335.7 116.87 335.7 118.44C335.7 119.73 334.71 120.68 333.01 120.68Z" fill="black"/>
<path d="M341.16 127.35C341.16 128.06 341.6 128.6 342.24 128.6C342.92 128.6 343.34 128.07 343.34 127.35C343.34 126.63 342.9 126.1 342.26 126.1C341.62 126.1 341.16 126.62 341.16 127.35Z" fill="black"/>
<path d="M353.11 116.26C354.14 116.26 355 116.5 355.61 116.81L356 115.4C355.58 115.16 354.6 114.81 353.06 114.81C349.22 114.81 346.59 117.64 346.59 121.82C346.59 126 349.22 128.57 352.71 128.57C354.22 128.57 355.39 128.25 355.98 127.94L355.65 126.57C355.01 126.91 354.01 127.12 353.04 127.12C350.02 127.12 348.28 125.02 348.28 121.75C348.28 118.25 350.21 116.25 353.12 116.25" fill="black"/>
<path d="M359.45 127.35C359.45 128.06 359.89 128.6 360.53 128.6C361.21 128.6 361.63 128.07 361.63 127.35C361.63 126.63 361.19 126.1 360.55 126.1C359.91 126.1 359.45 126.62 359.45 127.35Z" fill="black"/>
<path d="M207.96 84.84C206.83 85.64 205.62 86.14 204.36 86.34C203.09 86.54 201.81 86.43 200.51 86.01C199.21 85.59 197.91 84.85 196.61 83.78C195.31 82.71 194.04 81.31 192.81 79.57L192.51 79.14C191.3 77.42 190.42 75.76 189.89 74.14C189.36 72.53 189.12 71.03 189.18 69.63C189.24 68.24 189.58 66.97 190.21 65.83C190.83 64.69 191.7 63.73 192.81 62.94C193.86 62.2 194.9 61.73 195.93 61.53C196.96 61.33 197.99 61.31 199.01 61.47V65.39C198.29 65.29 197.59 65.27 196.9 65.35C196.21 65.43 195.57 65.67 194.99 66.09C194.36 66.53 193.9 67.11 193.6 67.83C193.3 68.54 193.18 69.37 193.23 70.3C193.28 71.23 193.53 72.26 193.97 73.37C194.41 74.49 195.07 75.66 195.94 76.89L196.05 77.04C196.97 78.34 197.89 79.38 198.81 80.17C199.73 80.96 200.62 81.53 201.48 81.88C202.34 82.23 203.14 82.38 203.89 82.32C204.64 82.26 205.3 82.03 205.89 81.61C206.54 81.15 207.01 80.6 207.32 79.96C207.63 79.32 207.85 78.58 207.99 77.75L211.53 79.02C211.3 80.24 210.9 81.34 210.33 82.31C209.75 83.28 208.97 84.11 207.98 84.81" fill="black"/>
<path d="M228.79 72.69C227.57 73.29 226.32 73.58 225.05 73.56C223.78 73.54 222.54 73.21 221.32 72.56C220.1 71.92 218.94 70.97 217.83 69.73C216.72 68.48 215.7 66.94 214.79 65.09L214.46 64.42C213.56 62.6 212.95 60.87 212.64 59.22C212.33 57.57 212.28 56.08 212.51 54.72C212.74 53.36 213.22 52.17 213.97 51.14C214.72 50.11 215.7 49.29 216.92 48.69C218.14 48.09 219.39 47.8 220.66 47.83C221.93 47.86 223.18 48.2 224.4 48.84C225.62 49.48 226.78 50.43 227.89 51.67C229 52.92 230.01 54.45 230.91 56.27L231.22 56.9C232.13 58.74 232.74 60.49 233.06 62.13C233.38 63.77 233.42 65.27 233.19 66.63C232.96 67.99 232.48 69.18 231.73 70.21C230.98 71.24 230 72.06 228.78 72.67M227.16 69.39C227.81 69.07 228.32 68.6 228.7 67.97C229.08 67.34 229.3 66.57 229.36 65.65C229.42 64.74 229.3 63.69 229.02 62.52C228.73 61.35 228.24 60.06 227.55 58.66L227.34 58.23C225.96 55.43 224.48 53.53 222.9 52.52C221.33 51.52 219.88 51.34 218.57 51.98C217.93 52.3 217.41 52.77 217.03 53.4C216.65 54.03 216.43 54.8 216.37 55.72C216.31 56.63 216.42 57.68 216.71 58.85C217 60.02 217.49 61.3 218.18 62.7L218.39 63.13C219.77 65.93 221.25 67.83 222.83 68.84C224.4 69.84 225.85 70.02 227.16 69.38" fill="black"/>
<path d="M238.86 39.65L242.82 38.48L251.12 48.09L252.88 35.52L256.8 34.36L264.16 59.32L260.45 60.41L255.33 43.05L253.45 55.89L253.35 55.92L244.82 46.18L249.93 63.51L246.22 64.61L238.86 39.65Z" fill="black"/>
<path d="M271.59 31.51L284.61 29.85L285.08 33.54L276.01 34.7L276.94 42L285.02 40.96L285.48 44.62L277.41 45.65L278.37 53.13L287.59 51.95L288.06 55.64L274.89 57.33L271.59 31.51Z" fill="black"/>
<path d="M298.64 29.04L304.62 29.17C306.26 29.21 307.73 29.53 309.04 30.14C310.35 30.75 311.46 31.61 312.37 32.72C313.28 33.83 313.96 35.18 314.42 36.76C314.88 38.34 315.09 40.13 315.05 42.11V42.67C315 44.65 314.71 46.43 314.18 48.01C313.65 49.59 312.91 50.91 311.96 51.98C311.01 53.05 309.86 53.86 308.53 54.42C307.19 54.97 305.71 55.23 304.07 55.2L298.09 55.07L298.65 29.05L298.64 29.04ZM302.58 32.77L302.18 51.5L304.07 51.54C306.05 51.58 307.67 50.86 308.93 49.38C310.19 47.9 310.85 45.62 310.92 42.54V42.13C310.96 40.59 310.83 39.25 310.53 38.09C310.23 36.93 309.8 35.97 309.24 35.2C308.67 34.43 307.99 33.85 307.18 33.45C306.37 33.05 305.47 32.84 304.48 32.82L302.58 32.78V32.77Z" fill="black"/>
<path d="M333.01 58.37C331.67 58.12 330.5 57.61 329.5 56.83C328.5 56.05 327.7 55.04 327.11 53.8C326.52 52.56 326.16 51.1 326.01 49.44C325.87 47.77 325.98 45.93 326.36 43.91L326.5 43.18C326.87 41.18 327.42 39.43 328.16 37.93C328.89 36.43 329.76 35.2 330.75 34.25C331.75 33.3 332.85 32.64 334.07 32.26C335.29 31.88 336.57 31.82 337.91 32.07C339.25 32.32 340.42 32.84 341.42 33.63C342.42 34.42 343.21 35.44 343.8 36.68C344.39 37.92 344.75 39.38 344.9 41.04C345.04 42.7 344.93 44.54 344.56 46.53L344.43 47.23C344.05 49.25 343.5 51.01 342.77 52.52C342.04 54.02 341.17 55.25 340.18 56.2C339.18 57.15 338.08 57.81 336.86 58.19C335.64 58.57 334.36 58.63 333.02 58.38M333.69 54.75C334.4 54.88 335.09 54.81 335.77 54.53C336.45 54.25 337.09 53.77 337.69 53.07C338.29 52.37 338.82 51.47 339.29 50.36C339.76 49.25 340.14 47.93 340.43 46.39L340.52 45.92C341.09 42.85 341.05 40.44 340.39 38.69C339.73 36.94 338.69 35.93 337.25 35.67C336.54 35.54 335.85 35.61 335.17 35.89C334.49 36.17 333.85 36.65 333.25 37.35C332.65 38.05 332.12 38.95 331.65 40.06C331.18 41.17 330.8 42.49 330.51 44.03L330.42 44.51C329.85 47.58 329.89 49.99 330.55 51.74C331.21 53.49 332.26 54.5 333.69 54.76" fill="black"/>
<path d="M360.66 37.99L367.17 40.33C368.43 40.78 369.51 41.37 370.4 42.1C371.3 42.83 371.97 43.67 372.42 44.62C372.82 45.48 373.03 46.43 373.05 47.49C373.07 48.55 372.86 49.67 372.43 50.86L372.37 51.04C371.72 52.86 370.79 54.19 369.6 55.02C368.4 55.85 367.11 56.32 365.7 56.42L366.95 67.89L362.72 66.37L361.65 56.03C361.53 56.01 361.37 55.97 361.18 55.9L358.8 55.05L355.65 63.83L351.87 62.47L360.67 37.98L360.66 37.99ZM362.21 52.49C363.87 53.09 365.22 53.11 366.27 52.56C367.32 52.01 368.09 51.07 368.57 49.74C369.1 48.27 369.1 47.02 368.57 45.99C368.04 44.97 367.04 44.19 365.57 43.66L363.19 42.81L360 51.7L362.2 52.49H362.21Z" fill="black"/>
<path d="M387.91 49.03L399.47 55.23L397.72 58.51L389.66 54.18L386.18 60.67L393.35 64.52L391.61 67.76L384.44 63.91L380.87 70.56L389.06 74.96L387.3 78.23L375.61 71.96L387.91 49.03Z" fill="black"/>
<path d="M400.32 87.34C399.28 86.58 398.38 85.61 397.62 84.45C396.86 83.28 396.35 81.83 396.08 80.1L399.87 79.01C399.94 79.46 400.03 79.93 400.15 80.41C400.27 80.9 400.43 81.37 400.62 81.84C400.82 82.3 401.06 82.76 401.36 83.19C401.66 83.62 402.03 84 402.47 84.32C403.35 84.96 404.24 85.21 405.13 85.07C406.02 84.92 406.74 84.47 407.3 83.71L407.32 83.68C407.52 83.4 407.69 83.1 407.8 82.77C407.92 82.44 407.96 82.05 407.92 81.59C407.88 81.13 407.78 80.59 407.59 79.97C407.4 79.34 407.13 78.59 406.76 77.7C406.27 76.57 405.88 75.54 405.59 74.61C405.3 73.68 405.15 72.81 405.12 72.01C405.09 71.21 405.18 70.45 405.39 69.75C405.6 69.04 405.95 68.35 406.45 67.67L406.49 67.61C407.09 66.79 407.79 66.14 408.59 65.65C409.39 65.16 410.25 64.87 411.15 64.76C412.06 64.66 412.98 64.73 413.93 65C414.87 65.26 415.8 65.72 416.7 66.38C417.58 67.02 418.37 67.87 419.06 68.91C419.75 69.95 420.21 71.2 420.44 72.66L416.64 73.7C416.52 72.9 416.28 72.1 415.95 71.28C415.61 70.46 415.08 69.79 414.36 69.26C413.58 68.69 412.78 68.45 411.96 68.54C411.14 68.63 410.48 69.02 409.98 69.7L409.96 69.73C409.73 70.05 409.55 70.38 409.44 70.73C409.33 71.08 409.29 71.49 409.33 71.98C409.37 72.47 409.5 73.07 409.73 73.77C409.95 74.47 410.28 75.33 410.7 76.35C411.15 77.45 411.5 78.44 411.75 79.33C411.99 80.22 412.11 81.04 412.11 81.8C412.11 82.56 411.99 83.28 411.76 83.94C411.53 84.6 411.18 85.27 410.7 85.93L410.66 85.99C410.05 86.83 409.32 87.5 408.48 87.99C407.64 88.48 406.76 88.78 405.84 88.89C404.92 89 403.98 88.93 403.03 88.67C402.08 88.42 401.17 87.98 400.31 87.35" fill="black"/>
<path d="M192.647 313.507L172.59 330.082L175.125 333.15L195.183 316.575L192.647 313.507Z" fill="black"/>
<path d="M202.22 324.54L205.01 327.06L200.35 345.17L211.45 332.86L214.32 335.44L196.9 354.77L194.3 352.43L199.17 333.7L187.68 346.46L184.8 343.87L202.22 324.54Z" fill="black"/>
<path d="M222.43 341.47L227.54 344.59C228.94 345.44 230.05 346.46 230.88 347.65C231.71 348.84 232.23 350.14 232.46 351.55C232.68 352.96 232.6 354.47 232.2 356.07C231.8 357.67 231.09 359.32 230.05 361.01L229.76 361.49C228.73 363.18 227.58 364.58 226.33 365.67C225.08 366.77 223.78 367.54 222.41 367.98C221.05 368.43 219.65 368.55 218.22 368.36C216.79 368.17 215.37 367.64 213.97 366.79L208.86 363.67L222.42 341.46L222.43 341.47ZM223.96 346.67L214.2 362.66L215.82 363.65C217.51 364.68 219.28 364.87 221.11 364.22C222.94 363.57 224.66 361.93 226.26 359.31L226.47 358.96C227.27 357.65 227.83 356.42 228.16 355.27C228.48 354.12 228.6 353.07 228.49 352.12C228.39 351.17 228.09 350.32 227.59 349.57C227.09 348.82 226.42 348.18 225.58 347.66L223.96 346.67Z" fill="black"/>
<path d="M242.96 381.63C241.85 381.21 240.9 380.64 240.12 379.94C239.34 379.23 238.76 378.4 238.37 377.44C237.98 376.48 237.8 375.41 237.85 374.22C237.89 373.03 238.18 371.73 238.72 370.32L244.88 354.13L248.63 355.56L242.4 371.92C241.78 373.54 241.66 374.88 242.02 375.93C242.39 376.99 243.15 377.73 244.31 378.17C245.47 378.61 246.53 378.57 247.5 378.03C248.47 377.5 249.27 376.42 249.88 374.8L256.12 358.4L259.84 359.82L253.69 375.98C253.15 377.39 252.5 378.56 251.74 379.49C250.97 380.42 250.13 381.11 249.2 381.57C248.27 382.03 247.28 382.26 246.21 382.26C245.15 382.26 244.06 382.06 242.95 381.64" fill="black"/>
<path d="M270.17 389.33C268.9 389.08 267.68 388.59 266.5 387.86C265.32 387.13 264.23 386.03 263.25 384.58L266.21 381.97C266.47 382.35 266.75 382.73 267.07 383.12C267.39 383.51 267.73 383.87 268.11 384.21C268.49 384.55 268.9 384.85 269.36 385.11C269.81 385.37 270.31 385.56 270.84 385.66C271.91 385.87 272.82 385.72 273.56 385.2C274.3 384.69 274.76 383.97 274.94 383.04V383C275.01 382.66 275.03 382.32 275 381.97C274.96 381.62 274.84 381.25 274.61 380.85C274.38 380.45 274.05 380.01 273.62 379.52C273.18 379.03 272.61 378.47 271.9 377.82C270.97 377.01 270.18 376.24 269.52 375.52C268.86 374.8 268.35 374.08 267.99 373.37C267.62 372.66 267.38 371.94 267.27 371.21C267.16 370.48 267.18 369.7 267.34 368.88V368.81C267.55 367.81 267.9 366.92 268.42 366.14C268.94 365.36 269.58 364.72 270.36 364.24C271.13 363.76 272 363.43 272.97 363.27C273.93 363.1 274.97 363.13 276.06 363.34C277.13 363.55 278.2 363.98 279.28 364.63C280.35 365.28 281.3 366.21 282.13 367.43L279.14 369.99C278.69 369.32 278.14 368.69 277.48 368.1C276.82 367.51 276.06 367.12 275.18 366.96C274.23 366.78 273.4 366.9 272.7 367.33C272 367.76 271.57 368.39 271.41 369.22V369.26C271.33 369.65 271.31 370.03 271.36 370.39C271.4 370.75 271.55 371.15 271.79 371.57C272.04 372 272.41 372.48 272.91 373.02C273.41 373.56 274.07 374.2 274.89 374.94C275.77 375.74 276.51 376.49 277.11 377.19C277.71 377.89 278.16 378.58 278.49 379.27C278.81 379.96 279.01 380.66 279.09 381.35C279.17 382.05 279.13 382.8 278.98 383.6V383.67C278.77 384.69 278.4 385.6 277.85 386.41C277.3 387.21 276.64 387.86 275.85 388.35C275.06 388.84 274.18 389.18 273.21 389.35C272.24 389.53 271.23 389.52 270.19 389.31" fill="black"/>
<path d="M294.94 369.7L289.74 369.51L289.88 365.76L304.33 366.29L304.19 370.04L298.96 369.85L298.14 392.1L294.12 391.95L294.94 369.7Z" fill="black"/>
<path d="M313.29 365.9L320.15 365.02C321.48 364.85 322.71 364.88 323.84 365.13C324.97 365.37 325.95 365.81 326.78 366.46C327.53 367.04 328.15 367.79 328.65 368.73C329.15 369.67 329.47 370.76 329.63 372.01L329.65 372.19C329.9 374.11 329.68 375.71 328.99 377C328.31 378.29 327.36 379.3 326.16 380.03L332.5 389.67L328.04 390.24L322.38 381.52C322.26 381.56 322.1 381.59 321.91 381.62L319.4 381.94L320.59 391.2L316.61 391.71L313.29 365.9ZM321.26 378.1C323 377.88 324.22 377.28 324.91 376.31C325.6 375.34 325.85 374.16 325.67 372.75C325.47 371.2 324.9 370.08 323.97 369.41C323.04 368.74 321.79 368.5 320.24 368.7L317.73 369.02L318.93 378.39L321.25 378.09L321.26 378.1Z" fill="black"/>
<path d="M342.041 360.486L338.206 361.549L345.16 386.623L348.995 385.559L342.041 360.486Z" fill="black"/>
<path d="M357.47 354.83L361.17 353.19L378.6 374.05L374.83 375.72L370.91 370.91L363.94 374L364.91 380.12L361.27 381.73L357.47 354.83ZM368.57 368.04L361.75 359.64L363.37 370.35L368.57 368.04Z" fill="black"/>
<path d="M375.47 345.8L378.81 343.58L391.14 362.17L398.08 357.57L400.13 360.67L389.85 367.49L375.47 345.8Z" fill="black"/>
<path d="M392.77 333.43L402.45 324.57L404.96 327.31L398.21 333.48L403.18 338.91L409.18 333.41L411.67 336.13L405.66 341.63L410.76 347.19L417.62 340.92L420.12 343.66L410.34 352.62L392.77 333.43Z" fill="black"/>
<path d="M433.14 329.32C432.34 330.33 431.34 331.19 430.14 331.9C428.94 332.61 427.47 333.07 425.74 333.27L424.79 329.44C425.24 329.39 425.71 329.31 426.21 329.21C426.71 329.11 427.18 328.97 427.66 328.79C428.13 328.61 428.59 328.38 429.04 328.1C429.48 327.82 429.87 327.47 430.21 327.04C430.89 326.19 431.17 325.31 431.06 324.42C430.95 323.52 430.52 322.78 429.78 322.2L429.75 322.18C429.48 321.96 429.18 321.79 428.86 321.66C428.54 321.53 428.15 321.47 427.69 321.49C427.23 321.51 426.69 321.6 426.05 321.76C425.42 321.92 424.65 322.17 423.75 322.5C422.6 322.95 421.56 323.3 420.62 323.55C419.68 323.8 418.81 323.92 418 323.92C417.2 323.92 416.45 323.8 415.75 323.56C415.05 323.32 414.37 322.94 413.71 322.42L413.65 322.37C412.85 321.74 412.23 321.01 411.77 320.19C411.31 319.37 411.05 318.51 410.98 317.59C410.91 316.68 411.02 315.76 411.32 314.83C411.62 313.9 412.11 312.99 412.81 312.12C413.49 311.27 414.36 310.51 415.43 309.86C416.5 309.21 417.77 308.8 419.23 308.63L420.12 312.47C419.32 312.56 418.5 312.76 417.68 313.07C416.85 313.38 416.16 313.88 415.61 314.58C415.01 315.34 414.74 316.13 414.8 316.95C414.86 317.77 415.22 318.45 415.88 318.97L415.91 318.99C416.22 319.24 416.55 319.42 416.89 319.55C417.23 319.68 417.65 319.73 418.14 319.71C418.63 319.69 419.23 319.58 419.94 319.38C420.65 319.18 421.52 318.89 422.55 318.51C423.67 318.1 424.67 317.79 425.56 317.58C426.45 317.37 427.28 317.28 428.04 317.32C428.8 317.36 429.51 317.5 430.17 317.75C430.82 318 431.47 318.38 432.11 318.89L432.17 318.93C432.99 319.58 433.62 320.33 434.09 321.18C434.55 322.04 434.82 322.93 434.89 323.85C434.96 324.78 434.85 325.71 434.57 326.65C434.28 327.59 433.81 328.48 433.15 329.31" fill="black"/>
<path d="M519.95 172.11C518.96 171.18 518.47 169.86 518.47 168.16C518.47 165.31 519.62 162.31 521.93 159.19C523.58 156.99 525.72 155.13 528.35 153.59C530.6 152.27 532.39 151.61 533.7 151.61C535.01 151.61 535.68 152.16 535.68 153.26C535.68 153.81 535.49 154.22 535.1 154.49C534.44 154.88 533.09 155.7 531.07 156.96C530.08 157.62 529.59 158.39 529.59 159.26C529.59 159.92 529.99 160.85 530.78 162.06C531.58 163.27 531.97 164.5 531.97 165.77C531.97 167.75 531.31 169.59 529.99 171.29C528.67 172.99 526.86 173.84 524.56 173.84C522.69 173.84 521.15 173.26 519.95 172.11Z" fill="black"/>
<path d="M519.95 172.11C518.96 171.18 518.47 169.86 518.47 168.16C518.47 165.31 519.62 162.31 521.93 159.19C523.58 156.99 525.72 155.13 528.35 153.59C530.6 152.27 532.39 151.61 533.7 151.61C535.01 151.61 535.68 152.16 535.68 153.26C535.68 153.81 535.49 154.22 535.1 154.49C534.44 154.88 533.09 155.7 531.07 156.96C530.08 157.62 529.59 158.39 529.59 159.26C529.59 159.92 529.99 160.85 530.78 162.06C531.58 163.27 531.97 164.5 531.97 165.77C531.97 167.75 531.31 169.59 529.99 171.29C528.67 172.99 526.86 173.84 524.56 173.84C522.69 173.84 521.15 173.26 519.95 172.11Z" stroke="black" stroke-width="2.75" stroke-miterlimit="10"/>
<path d="M562.87 169.22C565.75 169.02 568.28 169.72 570.46 171.3C573.14 173.19 574.48 176.04 574.48 179.86C574.48 183.34 572.57 186.75 568.75 190.1C564.93 193.45 560.46 195.65 555.35 196.69C555.65 203.84 555 209.1 553.41 212.47C548.79 222.2 540.43 227.06 528.32 227.06C521.67 227.06 516.76 225.37 513.58 222C511.35 219.62 510.23 216.74 510.23 213.36C510.23 210.63 510.97 208.22 512.46 206.14C514.1 203.81 516.31 202.54 519.09 202.34C521.17 202.19 522.93 202.79 524.38 204.13C525.62 205.37 526.24 206.79 526.24 208.37C526.24 209.31 525.99 210.11 525.5 210.75C524.65 211.74 523.81 212.74 522.97 213.73C522.37 214.47 522.08 215.37 522.08 216.41C522.08 219.78 523.82 221.47 527.29 221.47C527.74 221.47 528.21 221.45 528.7 221.39C533.61 220.84 536.86 219.23 538.45 216.55C540.24 213.47 541.13 207.27 541.13 197.94V195.86C535.03 194.07 530.61 191.07 527.88 186.85C526.64 184.96 526.02 183.28 526.02 181.79C526.02 180.45 526.59 179.68 527.73 179.48C528.03 179.43 528.33 179.41 528.62 179.41C529.71 179.41 530.51 179.91 531 180.9C531.35 181.89 531.69 182.91 532.04 183.95C533.28 187.52 536.43 190.15 541.49 191.84C542.48 184.55 545.09 178.91 549.31 174.94C552.98 171.46 557.5 169.55 562.86 169.21M555.12 192.74C559.29 191.8 562.59 189.79 565.02 186.71C566.91 184.28 567.85 182.07 567.85 180.09C567.85 175.77 566.19 173.61 562.86 173.61C561.27 173.61 559.61 174.65 557.87 176.74C555.54 179.57 554.52 183.42 554.82 188.28C555.02 191.41 555.12 192.9 555.12 192.75" fill="black"/>
<path d="M562.87 169.22C565.75 169.02 568.28 169.72 570.46 171.3C573.14 173.19 574.48 176.04 574.48 179.86C574.48 183.34 572.57 186.75 568.75 190.1C564.93 193.45 560.46 195.65 555.35 196.69C555.65 203.84 555 209.1 553.41 212.47C548.79 222.2 540.43 227.06 528.32 227.06C521.67 227.06 516.76 225.37 513.58 222C511.35 219.62 510.23 216.74 510.23 213.36C510.23 210.63 510.97 208.22 512.46 206.14C514.1 203.81 516.31 202.54 519.09 202.34C521.17 202.19 522.93 202.79 524.38 204.13C525.62 205.37 526.24 206.79 526.24 208.37C526.24 209.31 525.99 210.11 525.5 210.75C524.65 211.74 523.81 212.74 522.97 213.73C522.37 214.47 522.08 215.37 522.08 216.41C522.08 219.78 523.82 221.47 527.29 221.47C527.74 221.47 528.21 221.45 528.7 221.39C533.61 220.84 536.86 219.23 538.45 216.55C540.24 213.47 541.13 207.27 541.13 197.94V195.86C535.03 194.07 530.61 191.07 527.88 186.85C526.64 184.96 526.02 183.28 526.02 181.79C526.02 180.45 526.59 179.68 527.73 179.48C528.03 179.43 528.33 179.41 528.62 179.41C529.71 179.41 530.51 179.91 531 180.9C531.35 181.89 531.69 182.91 532.04 183.95C533.28 187.52 536.43 190.15 541.49 191.84C542.48 184.55 545.09 178.91 549.31 174.94C552.98 171.46 557.5 169.55 562.86 169.21L562.87 169.22ZM555.12 192.74C559.29 191.8 562.59 189.79 565.02 186.71C566.91 184.28 567.85 182.07 567.85 180.09C567.85 175.77 566.19 173.61 562.86 173.61C561.27 173.61 559.61 174.65 557.87 176.74C555.54 179.57 554.52 183.42 554.82 188.28C555.02 191.41 555.12 192.9 555.12 192.75V192.74Z" stroke="black" stroke-width="2.49" stroke-miterlimit="10"/>
<path d="M505.92 218.52C507.56 216.6 509.93 213.11 512.01 207.36C511.93 207.39 511.85 207.42 511.78 207.47C515.05 199.41 516.98 190.06 516.65 183.36C516.14 172.58 509.59 166.19 499.55 166.67C484.35 167.39 474.69 183.53 470.66 198.48C462.53 213.84 455.65 220.86 452.44 221C452.3 221.01 452.24 221 452.21 221C452.09 220.8 451.09 218.84 454.21 209.91L460.09 193.28C462.38 186.54 463.31 182.24 463.16 178.94C462.86 172.63 458.4 168.63 452.04 168.93C449.47 169.05 445.95 169.82 441.89 172.36C441.98 172.16 442.32 170.7 432.04 171.34C428.49 171.81 425.47 174.26 424.28 177.67L416.2 200.87C408 216.35 401.08 223.44 397.85 223.61C397.7 223.61 397.6 223.61 397.6 223.61C397.46 223.41 396.52 221.46 399.64 212.53L410.09 182.6C411.84 177.61 407.99 172.45 402.7 172.71C401.18 172.78 399.77 173.3 398.62 174.18C397.46 175.03 396.55 176.24 396.03 177.68L387.37 202.44C384.4 208.08 375.68 224.48 371.62 224.84C371.43 224.43 370.72 222.15 373.64 213.75L377.96 201.46C378.82 199.05 379.21 196.88 379.12 195.03C378.83 188.76 373.08 184.56 368.48 181.19C367.53 180.5 366.63 179.84 365.82 179.21L366.09 178.48C367.09 175.76 367.12 172.76 366.14 170.03C365.58 168.47 364.78 166.87 363.53 165.73C361.99 164.31 360.04 164.15 358.16 165.03C355.64 166.2 353.5 168.49 351.98 170.77C350.5 172.95 349.49 175.56 349.62 178.23C349.74 180.73 350.83 183.09 352.96 185.42C349.89 193.06 347.08 199.38 344.79 203.77C339.65 213.81 333.44 221.18 325.04 227.02L333.01 204.37L339.5 185.9C341.25 180.94 337.41 175.78 332.15 176.05C329.5 176.16 327.01 177.71 325.8 180.02C325.78 180.04 325.78 180.05 325.76 180.07C325.76 180.07 325.65 180.4 325.62 180.36C322.65 176.59 317.95 175.3 314.13 175.48C298.8 176.2 291.07 199.63 288.97 207.23C281.54 220.88 271.35 229.61 262.32 230.04C259.54 230.17 257.64 229.52 256.51 228.06C254.63 225.6 255.13 221.08 255.75 218.35C270.9 218.91 279.51 214.08 284.41 202.43C287.65 194.81 287.6 187.96 284.25 183.15C281.54 179.25 277 177.26 271.48 177.51C257 178.2 246.37 194.12 242.19 209.68C234.14 224.79 227.33 231.71 224.15 231.85C224 231.86 223.92 231.85 223.9 231.87C223.78 231.67 222.83 229.7 225.94 220.77L244.08 168.89C245.81 163.91 241.96 158.75 236.69 159C235.17 159.07 233.76 159.6 232.59 160.47C231.43 161.34 230.51 162.55 230.01 163.99L213.68 210.7C205.53 226.06 198.64 233.07 195.44 233.22C195.29 233.23 195.21 233.22 195.19 233.24C195.05 233.04 194.12 231.07 197.23 222.16L215.36 170.26C217.1 165.28 213.26 160.12 207.98 160.37C206.46 160.44 205.05 160.97 203.88 161.84C202.71 162.72 201.8 163.92 201.3 165.36L184.98 212C177.53 225.76 167.31 234.58 158.24 235.01C155.44 235.13 153.56 234.49 152.44 233.03C150.56 230.57 151.06 226.05 151.68 223.32C166.81 223.88 175.44 219.05 180.32 207.4C183.58 199.78 183.52 192.93 180.18 188.13C177.46 184.22 172.93 182.24 167.41 182.5C147.11 183.46 135.56 213.62 136.3 229.07C136.87 241.05 143.97 247.32 156.3 246.73C165.06 246.31 173.12 242.55 180.35 235.57C180.77 238.15 181.76 240.24 183.28 241.81C185.51 244.11 188.76 245.17 192.95 244.97C198.59 244.71 203.98 241.65 209.39 235.67C209.94 237.67 210.87 239.32 212.18 240.62C214.41 242.8 217.6 243.81 221.66 243.61C228.42 243.29 234.91 238.9 241.41 230.26C243.86 238.19 250.42 242.25 260.37 241.78C269.95 241.32 278.7 236.88 286.41 228.61C287.63 235.77 292.5 240.24 299.09 239.93C299.26 239.93 299.43 239.89 299.59 239.9C297.74 240.8 295.89 241.72 294.41 242.59C286.35 246.71 282.04 252.21 281.91 258.48C281.91 258.7 281.91 258.91 281.91 259.13C281.97 262.29 283.13 265.05 285.23 267.12C287.74 269.57 291.46 270.8 295.73 270.6C304.22 270.21 309.44 264.96 313.21 258.05C314.78 255.23 316.09 252.14 317.29 248.99C318.4 246.01 319.37 243.2 319.82 241.85C329.77 236.55 343.1 229.09 353.41 208.9C356.4 203.02 358.96 197.11 360.98 192.19C362.66 193.55 363.88 194.71 363.91 195.56C363.91 195.64 363.93 196.46 363.24 198.48L359.68 208.46C355.67 219.65 355.4 227.7 358.89 232.43C361.08 235.37 364.56 236.81 369 236.6C374 236.37 378.62 233.66 383.28 228.18C383.87 229.9 384.76 231.35 385.96 232.48C388.2 234.58 391.33 235.55 395.32 235.35C398.76 235.18 402.1 233.99 405.42 231.71C405.42 231.71 408.07 233.26 415.44 232.82C418.99 232.07 421.95 229.52 423.16 226L435.57 190.48C440 185.15 444.42 183.08 446.34 182.98C446.94 182.96 447.22 183.12 447.25 183.21C447.32 184.39 445.97 188.27 444.55 192.36L440.26 204.62C436.29 215.92 436 223.98 439.43 228.58C440.97 230.63 444.02 233.03 449.89 232.73C456.58 232.42 463.01 228.14 469.43 219.68C471.59 227.17 477.51 231.42 485.78 231.03C492.35 230.71 498.38 227.45 503.46 221.54C503.46 221.54 505.44 219.22 505.88 218.53M271.38 191.18C272.1 191.15 272.31 191.31 272.31 191.31C272.31 191.31 273.14 192.5 270.76 198.3C268.35 204.2 265.4 207.93 258.72 207.9C260.9 201.87 265.82 191.45 271.38 191.18ZM167.31 196.15C168.03 196.12 168.22 196.26 168.24 196.26C168.24 196.26 169.07 197.45 166.67 203.27C164.28 209.17 161.32 212.89 154.65 212.85C156.83 206.82 161.74 196.4 167.31 196.15ZM297.95 258.55C295.94 260.59 294.05 261.57 292.52 261.71C290.74 261.78 290.71 261 290.69 260.66C290.67 260.23 290.75 259.61 291.18 258.79C291.91 257.35 293.67 255.28 297.62 252.54C299.81 251.07 302.02 249.85 304.31 248.73C302.2 253.28 300 256.47 297.94 258.55M318.47 200.9C317.98 202.31 317.48 203.73 316.99 205.14L313.51 215.06C313.08 216.26 312.52 217.39 311.83 218.44C309.81 221.42 306.17 225.79 302.8 225.95C302.02 225.99 301.35 226.01 301.24 223.69C301.08 220.32 301.92 216.86 302.74 213.62C303.87 209.17 305.37 204.82 307.29 200.65C308.62 197.74 310.17 194.82 312.3 192.4C313.54 190.98 315.61 189.08 317.68 189.35C319.58 189.6 320.43 191.82 320.53 193.51C320.65 196.11 319.31 198.51 318.48 200.9M499.28 198.32C497.38 198.49 495.58 199.3 494.19 200.63C492.29 202.4 491.27 204.93 491.39 207.55C491.47 209.33 492.07 211.01 493.08 212.41C490.56 216.45 487.94 218.87 485.91 218.97C483.52 219.08 483.11 215.96 483.05 214.61C482.54 204.17 492.21 179.05 499.69 178.69C501.23 178.6 502.08 180 502.21 182.83C502.37 186.3 501.25 192.13 499.28 198.31" fill="black"/>
<path d="M581.42 221.47C583.07 231.07 580.6 237.31 574.63 244.65C567.65 253.24 555.5 258.26 543.24 259.47C483.5 265.36 432.11 266.95 377.71 268.64C368.26 268.92 324.55 270.4 314.96 270.72C314.83 270.72 314.71 270.73 314.58 270.73C317.14 268.27 319.41 265.22 321.39 261.59C322.18 260.16 322.9 258.7 323.54 257.3C330.1 257.08 370.83 255.72 377.32 255.51C431.49 253.84 482.66 252.25 541.97 246.4C550.66 245.53 559.14 243.26 563.85 237.45C567.62 232.82 569.36 229.03 568.39 222.85C568.39 222.85 566.85 214.07 555.46 215.87C555.46 215.87 548.57 226.66 537.17 226.96L536.87 221.56C536.87 221.56 558.15 209.27 555.16 205.07C555.16 205.07 577.64 199.37 581.44 221.46" fill="black"/>
</g>
<defs>
<clipPath id="clip0_1_3">
<rect width="578.19" height="413.35" fill="white" transform="translate(7 2)"/>
</clipPath>
</defs>
</svg>
