<svg width="500" height="354" viewBox="0 0 500 354" fill="none" xmlns="http://www.w3.org/2000/svg">
<mask id="mask0_2_3" style="mask-type:luminance" maskUnits="userSpaceOnUse" x="5" y="1" width="490" height="350">
<path d="M494.248 1.68919H5.91216V350.802H494.248V1.68919Z" fill="white"/>
</mask>
<g mask="url(#mask0_2_3)">
<path d="M440.431 191.681C447.939 193.378 454.637 191.655 460.633 186.917C465.633 182.965 470.49 176.166 477.449 176.191C485.439 176.216 489.764 182.762 488.674 190.186C487.652 197.204 482.855 204.291 476.208 207.061C473.243 208.302 474.544 213.201 477.551 211.943C490.127 206.698 502.145 184.248 487.551 174.316C480.279 169.367 472.179 170.777 465.608 175.912C458.057 181.816 452.458 189.223 441.765 186.807C438.581 186.09 437.238 190.971 440.422 191.689" fill="black"/>
<path d="M109.831 238.767C150.515 233.944 191.52 231.706 235.6 230.051C232.872 227.128 231.309 223.285 231.199 219.139C231.199 219.139 231.199 219.13 231.199 219.113C187.703 220.794 147.12 223.091 106.689 227.973C104.13 228.277 101.495 228.581 98.826 228.894C69.6622 232.289 33.3615 236.529 8.25169 254.468C5.75169 256.233 5.17737 259.704 6.95102 262.196C7.88007 263.488 9.25676 264.265 10.7095 264.468C12.0693 264.654 13.4797 264.35 14.696 263.48C37.4747 247.204 70.7432 243.328 100.11 239.907C102.128 239.671 104.113 239.443 106.073 239.206" fill="black"/>
<path d="M55.2703 166.41C55.1182 165.465 55.0169 164.476 54.9662 163.438C54.1723 146.757 67.348 128.083 90.0253 127.01C95.2956 126.757 100.228 127.61 104.595 129.35L107.525 130.693C116.377 135.321 122.28 143.91 122.779 154.409C123.294 165.287 118.041 176.216 109.392 182.247C101.537 187.736 91.8243 188.691 81.8834 185.025L74.1807 207.162C73.7584 208.378 72.9899 209.392 72.0017 210.135C71.0219 210.87 69.8226 211.318 68.5388 211.377C64.0878 211.588 60.8361 207.23 62.3057 203.015L66.8665 189.932L73.0068 172.306L79.5608 153.497C80.5067 150.828 81.9172 148.311 83.7078 146.123C85.4138 144.046 87.4662 142.171 90.3716 142.88C92.0439 143.294 93.4713 144.493 94.2652 146.014C95.1774 147.745 95.2618 149.882 94.5439 151.698C94.1638 152.66 93.4713 153.471 92.9645 154.383C92.424 155.355 91.9426 156.368 91.5709 157.424L85.2618 175.338C92.6689 177.939 98.0912 175.861 101.41 173.556C106.985 169.671 110.515 162.373 110.177 155.397C110.051 152.77 109.375 150.169 108.176 147.804C105.726 142.99 101.098 139.189 94.4932 138.336C93.2179 138.159 91.875 138.108 90.4561 138.176C74.8986 138.919 65.9966 152.872 66.4611 162.542C66.4949 163.235 66.5794 163.927 66.7145 164.578C67.103 166.613 66.2922 168.708 64.6875 170.034C63.6571 170.878 62.4747 171.309 61.3007 171.368C58.5051 171.503 55.7601 169.569 55.2618 166.427" fill="black"/>
<path d="M338.513 136.419C338.708 140.557 342.196 143.767 346.284 143.573C350.422 143.378 353.632 139.848 353.429 135.709C353.235 131.622 349.713 128.454 345.574 128.657C341.419 128.851 338.319 132.264 338.513 136.419Z" fill="black"/>
<path d="M416.318 230.633C415.152 230.633 414.13 231.377 413.742 232.466C405.397 256.123 391.782 277.77 373.758 295.794C341.833 327.72 299.375 345.304 254.215 345.304C209.054 345.304 166.605 327.72 134.671 295.794C120.794 281.909 109.519 265.878 101.267 248.446C100.743 247.348 99.5693 246.715 98.3699 246.917C98.353 246.917 98.3361 246.917 98.3108 246.917C96.5372 247.221 95.5152 249.122 96.2838 250.752C104.797 268.767 116.436 285.338 130.777 299.671C163.75 332.644 207.584 350.794 254.215 350.794C300.845 350.794 344.679 332.635 377.652 299.671C396.25 281.09 410.321 258.75 418.919 234.316C419.552 232.517 418.235 230.633 416.326 230.633" fill="black"/>
<path d="M165.431 238.784C164.856 237.973 163.894 237.525 162.905 237.644C162.889 237.644 162.863 237.644 162.846 237.644C160.802 237.88 159.747 240.228 160.938 241.909C164.679 247.213 168.894 252.213 173.573 256.883C195.11 278.421 223.75 290.287 254.215 290.287C284.679 290.287 313.328 278.421 334.865 256.883C341.588 250.16 347.382 242.762 352.162 234.772C353.26 232.948 351.917 230.625 349.789 230.625C348.826 230.625 347.939 231.132 347.441 231.959C342.88 239.561 337.382 246.588 330.971 252.99C310.473 273.497 283.218 284.789 254.206 284.789C225.194 284.789 197.948 273.488 177.449 252.998C173.007 248.547 168.986 243.801 165.431 238.767" fill="black"/>
<path d="M347.432 120.515C347.931 121.343 348.809 121.85 349.78 121.85C351.917 121.85 353.243 119.519 352.145 117.686C347.365 109.713 341.588 102.323 334.865 95.5997C313.328 74.0625 284.679 62.1959 254.215 62.1959C223.75 62.1959 195.11 74.0625 173.573 95.5997C166.85 102.323 161.064 109.713 156.284 117.694C155.186 119.519 156.512 121.85 158.64 121.85C159.603 121.85 160.49 121.343 160.988 120.515C165.456 113.091 170.819 106.182 177.052 99.8902C196.03 80.7179 221.605 69.1892 248.547 67.8294C279.654 66.2584 309.147 77.652 330.98 99.4848C337.39 105.887 342.889 112.922 347.449 120.507" fill="black"/>
<path d="M92.103 121.858C93.2686 121.858 94.299 121.115 94.679 120.025C103.015 96.3767 116.647 74.7213 134.662 56.6976C166.596 24.772 209.054 7.1875 254.206 7.1875C299.358 7.1875 341.824 24.772 373.75 56.6976C391.765 74.7128 405.397 96.3598 413.733 120.017C414.122 121.115 415.152 121.858 416.318 121.858C418.226 121.858 419.544 119.975 418.91 118.176C410.312 93.7584 396.242 71.4189 377.644 52.8209C344.671 19.848 300.845 1.68919 254.206 1.68919C207.568 1.68919 163.742 19.848 130.769 52.8125C112.171 71.4105 98.0997 93.7584 89.5101 118.176C88.8767 119.966 90.1942 121.85 92.0946 121.85" fill="black"/>
<path d="M227.829 245.659H227.863C228.159 247.002 228.581 248.454 229.071 250.042L230.76 255.405H231.782L233.632 249.941C234.155 248.387 234.595 246.985 234.949 245.659H235C234.983 247.061 235.076 248.953 235.152 250.524L235.414 255.473H236.731L236.081 244.206H234.358L232.492 249.654C232.027 251.073 231.655 252.314 231.385 253.454H231.343C231.081 252.28 230.718 251.047 230.287 249.654L228.505 244.206H226.782L226.056 255.473H227.348L227.627 250.642C227.72 248.953 227.796 247.061 227.829 245.659Z" fill="black"/>
<path d="M246.09 245.431V244.206H240.439V255.473H246.326V254.257H241.791V250.194H245.853V248.986H241.791V245.431H246.09Z" fill="black"/>
<path d="M250.448 255.473L251.706 252.998C252.247 252.01 252.542 251.41 252.838 250.76H252.872C253.201 251.41 253.539 252.027 254.079 252.981L255.414 255.473H256.985L253.725 249.688L256.909 244.206H255.355L253.927 246.85C253.539 247.568 253.277 248.083 252.981 248.758H252.931C252.652 248.159 252.356 247.584 251.968 246.85L250.583 244.206H249.012L252.086 249.772L248.885 255.473H250.439H250.448Z" fill="black"/>
<path d="M261.52 244.206H260.169V255.473H261.52V244.206Z" fill="black"/>
<path d="M270.389 245.245C271.258 245.245 271.985 245.448 272.5 245.709L272.829 244.519C272.475 244.316 271.647 244.02 270.346 244.02C267.103 244.02 264.882 246.41 264.882 249.941C264.882 253.471 267.103 255.642 270.051 255.642C271.326 255.642 272.314 255.372 272.812 255.11L272.534 253.953C271.993 254.24 271.149 254.417 270.329 254.417C267.787 254.417 266.309 252.644 266.309 249.89C266.309 246.926 267.939 245.245 270.397 245.245" fill="black"/>
<path d="M284.738 249.73C284.738 246.385 282.889 244.029 280.034 244.029C277.179 244.029 275.169 246.368 275.169 249.949C275.169 253.53 277.111 255.667 279.873 255.667C282.635 255.667 284.738 253.615 284.738 249.73ZM276.613 249.907C276.613 247.432 277.736 245.211 279.966 245.211C282.196 245.211 283.302 247.551 283.302 249.789C283.302 252.348 282.095 254.468 279.949 254.468C277.804 254.468 276.613 252.314 276.613 249.907Z" fill="black"/>
<path d="M209.916 108.429V98.3953H213.108V97.1622H205.363V98.3953H208.547V108.429H209.916Z" fill="black"/>
<path d="M217.238 97.1622H215.887V108.429H217.238V97.1622Z" fill="black"/>
<path d="M221.427 107.373C220.98 107.373 220.574 107.272 220.296 107.154L220.093 108.345C220.431 108.497 221.039 108.615 221.537 108.615C223.336 108.615 224.704 107.694 224.704 104.704V97.1622H223.353V104.586C223.353 106.799 222.635 107.382 221.427 107.382" fill="black"/>
<path d="M228.556 97.1622V103.801C228.556 107.297 230.169 108.615 232.314 108.615C234.578 108.615 236.275 107.196 236.275 103.733V97.1622H234.907V103.834C234.907 106.326 233.91 107.432 232.356 107.432C230.963 107.432 229.916 106.36 229.916 103.834V97.1622H228.547H228.556Z" fill="black"/>
<path d="M238.919 108.429H240.313L241.402 104.882H245.118L246.242 108.429H247.686L244.113 97.1622H242.483L238.927 108.429H238.919ZM243.235 98.446H243.269C243.429 99.0963 243.581 99.7635 243.818 100.507L244.84 103.75H241.689L242.711 100.49C242.914 99.8058 243.083 99.1216 243.243 98.446" fill="black"/>
<path d="M253.995 102.711L257.323 108.429H258.691V97.1622H257.416V101.875C257.416 103.632 257.449 105 257.568 106.503L257.534 106.52C257.035 105.363 256.427 104.181 255.65 102.855L252.297 97.1537H250.819V108.421H252.095V103.606C252.095 101.74 252.061 100.38 251.985 98.9612L252.035 98.9443C252.559 100.169 253.26 101.453 253.995 102.703" fill="black"/>
<path d="M261.867 108.429H263.26L264.35 104.882H268.066L269.189 108.429H270.633L267.061 97.1622H265.431L261.875 108.429H261.867ZM266.182 98.446H266.216C266.377 99.0963 266.529 99.7635 266.765 100.507L267.787 103.75H264.637L265.659 100.49C265.861 99.8058 266.03 99.1216 266.191 98.446" fill="black"/>
<path d="M284.899 99.8818C284.899 98.9949 284.569 98.3277 284.029 97.8885C283.378 97.3226 282.508 97.0693 281.157 97.0693C280.211 97.0693 279.274 97.1706 278.691 97.3057V108.395C279.138 108.463 279.856 108.53 280.785 108.53C282.492 108.53 283.674 108.201 284.409 107.475C284.932 106.926 285.296 106.191 285.296 105.22C285.296 103.547 284.13 102.66 283.133 102.399V102.365C284.24 101.934 284.907 100.98 284.907 99.8902M283.851 105.203C283.851 106.841 282.559 107.39 281.165 107.39C280.684 107.39 280.296 107.373 280.034 107.323V103.032H281.149C282.627 103.032 283.851 103.666 283.851 105.203ZM281.258 101.926H280.034V98.2939C280.253 98.2432 280.608 98.1926 281.233 98.1926C282.601 98.1926 283.53 98.7078 283.53 100.034C283.53 101.123 282.694 101.926 281.258 101.926Z" fill="black"/>
<path d="M288.142 107.559C288.142 108.159 288.514 108.615 289.054 108.615C289.628 108.615 289.983 108.167 289.983 107.559C289.983 106.951 289.612 106.503 289.071 106.503C288.53 106.503 288.142 106.943 288.142 107.559Z" fill="black"/>
<path d="M298.235 98.1926C299.105 98.1926 299.831 98.3953 300.346 98.6571L300.676 97.4662C300.321 97.2635 299.493 96.9679 298.193 96.9679C294.949 96.9679 292.728 99.3581 292.728 102.889C292.728 106.419 294.949 108.59 297.897 108.59C299.172 108.59 300.16 108.319 300.659 108.057L300.38 106.9C299.84 107.188 298.995 107.365 298.176 107.365C295.625 107.365 294.155 105.591 294.155 102.829C294.155 99.8733 295.785 98.1841 298.243 98.1841" fill="black"/>
<path d="M303.59 107.559C303.59 108.159 303.961 108.615 304.502 108.615C305.076 108.615 305.431 108.167 305.431 107.559C305.431 106.951 305.059 106.503 304.519 106.503C303.978 106.503 303.59 106.943 303.59 107.559Z" fill="black"/>
<path d="M175.642 71.6554C174.688 72.3311 173.666 72.7534 172.601 72.9223C171.529 73.0912 170.448 72.9983 169.35 72.6436C168.252 72.2889 167.154 71.6639 166.056 70.7601C164.958 69.8564 163.885 68.674 162.846 67.2044L162.593 66.8412C161.571 65.3885 160.828 63.9865 160.38 62.6183C159.932 61.2585 159.73 59.9916 159.78 58.8091C159.831 57.6351 160.118 56.5625 160.65 55.5997C161.174 54.6368 161.909 53.826 162.846 53.1588C163.733 52.5338 164.611 52.1368 165.481 51.9679C166.351 51.799 167.221 51.7821 168.083 51.9172V55.228C167.475 55.1436 166.883 55.1267 166.301 55.1943C165.718 55.2618 165.177 55.4645 164.688 55.8193C164.155 56.1909 163.767 56.6808 163.514 57.2889C163.26 57.8885 163.159 58.5895 163.201 59.375C163.243 60.1605 163.454 61.0304 163.826 61.9679C164.198 62.9139 164.755 63.902 165.49 64.9409L165.583 65.0676C166.36 66.1656 167.137 67.0439 167.914 67.7112C168.691 68.3784 169.443 68.8598 170.169 69.1554C170.895 69.451 171.571 69.5777 172.204 69.527C172.838 69.4764 173.395 69.2821 173.894 68.9274C174.443 68.5389 174.84 68.0743 175.101 67.5338C175.363 66.9933 175.549 66.3683 175.667 65.6672L178.657 66.7399C178.463 67.7703 178.125 68.6993 177.644 69.5186C177.154 70.3378 176.495 71.0389 175.659 71.6301" fill="black"/>
<path d="M193.235 61.3936C192.204 61.9003 191.149 62.1453 190.076 62.1284C189.003 62.1115 187.956 61.8328 186.926 61.2838C185.895 60.7432 184.916 59.9409 183.978 58.8936C183.041 57.8378 182.179 56.5372 181.41 54.9747L181.132 54.4088C180.372 52.8716 179.856 51.4105 179.595 50.0169C179.333 48.6233 179.291 47.3649 179.485 46.2162C179.679 45.0676 180.084 44.0625 180.718 43.1926C181.351 42.3226 182.179 41.6301 183.209 41.1233C184.24 40.6166 185.296 40.3716 186.368 40.397C187.441 40.4223 188.497 40.7095 189.527 41.25C190.557 41.7905 191.537 42.5929 192.475 43.6402C193.412 44.696 194.265 45.9882 195.025 47.5253L195.287 48.0574C196.056 49.6115 196.571 51.0895 196.841 52.4747C197.111 53.8598 197.145 55.1267 196.951 56.2753C196.757 57.424 196.351 58.4291 195.718 59.299C195.084 60.1689 194.257 60.8615 193.226 61.3767M191.858 58.6064C192.407 58.3362 192.838 57.9392 193.159 57.4071C193.48 56.875 193.666 56.2247 193.716 55.4476C193.767 54.6791 193.666 53.7922 193.429 52.8041C193.184 51.8159 192.77 50.7264 192.187 49.5439L192.01 49.1808C190.845 46.8159 189.595 45.2112 188.26 44.3581C186.934 43.5135 185.709 43.3615 184.603 43.902C184.062 44.1723 183.623 44.5693 183.302 45.1014C182.981 45.6335 182.796 46.2838 182.745 47.0608C182.694 47.8294 182.787 48.7162 183.032 49.7044C183.277 50.6926 183.691 51.7737 184.274 52.9561L184.451 53.3193C185.617 55.6841 186.867 57.2889 188.201 58.1419C189.527 58.9865 190.752 59.1385 191.858 58.598" fill="black"/>
<path d="M201.74 33.4882L205.084 32.5L212.095 40.6166L213.581 30L216.892 29.0203L223.108 50.1014L219.975 51.022L215.65 36.3598L214.062 47.2044L213.978 47.2297L206.774 39.0034L211.09 53.6402L207.956 54.5693L201.74 33.4882Z" fill="black"/>
<path d="M229.383 26.6132L240.38 25.2112L240.777 28.3277L233.117 29.3074L233.902 35.473L240.726 34.5946L241.115 37.6858L234.299 38.5558L235.11 44.8733L242.897 43.8767L243.294 46.9933L232.171 48.4206L229.383 26.6132Z" fill="black"/>
<path d="M252.23 24.527L257.28 24.6368C258.666 24.6706 259.907 24.9409 261.014 25.4561C262.12 25.9713 263.057 26.6976 263.826 27.6351C264.595 28.5726 265.169 29.7128 265.557 31.0473C265.946 32.3818 266.123 33.8936 266.09 35.5659V36.0389C266.047 37.7112 265.802 39.2145 265.355 40.549C264.907 41.8834 264.282 42.9983 263.48 43.902C262.677 44.8057 261.706 45.4899 260.583 45.9628C259.451 46.4274 258.201 46.647 256.816 46.6216L251.765 46.5118L252.238 24.5355L252.23 24.527ZM255.557 27.6774L255.22 43.4966L256.816 43.5304C258.488 43.5642 259.856 42.9561 260.921 41.7061C261.985 40.4561 262.542 38.5304 262.601 35.9291V35.5828C262.635 34.2821 262.525 33.1503 262.272 32.1706C262.019 31.1909 261.655 30.3801 261.182 29.7297C260.701 29.0794 260.127 28.5895 259.443 28.2517C258.758 27.9139 257.998 27.7365 257.162 27.7196L255.557 27.6858V27.6774Z" fill="black"/>
<path d="M281.258 49.299C280.127 49.0878 279.139 48.6571 278.294 47.9983C277.449 47.3395 276.774 46.4865 276.275 45.4392C275.777 44.3919 275.473 43.1588 275.346 41.7568C275.228 40.3463 275.321 38.7922 275.642 37.0861L275.76 36.4696C276.073 34.7804 276.537 33.3024 277.162 32.0355C277.779 30.7686 278.514 29.7297 279.35 28.9274C280.194 28.125 281.123 27.5676 282.154 27.2466C283.184 26.9257 284.265 26.875 285.397 27.0861C286.529 27.2973 287.517 27.7365 288.361 28.4037C289.206 29.0709 289.873 29.9324 290.372 30.9797C290.87 32.027 291.174 33.2601 291.301 34.6622C291.419 36.0642 291.326 37.6182 291.014 39.299L290.904 39.8902C290.583 41.5963 290.118 43.0828 289.502 44.3581C288.885 45.625 288.15 46.6638 287.314 47.4662C286.47 48.2686 285.541 48.826 284.51 49.147C283.48 49.4679 282.399 49.5186 281.267 49.3074M281.833 46.2416C282.432 46.3513 283.015 46.2922 283.59 46.0557C284.164 45.8193 284.704 45.4138 285.211 44.8226C285.718 44.2314 286.166 43.4713 286.562 42.5338C286.959 41.5963 287.28 40.4814 287.525 39.1807L287.601 38.7838C288.083 36.1909 288.049 34.1554 287.492 32.6774C286.934 31.1993 286.056 30.3463 284.84 30.1267C284.24 30.0169 283.657 30.076 283.083 30.3125C282.508 30.549 281.968 30.9544 281.461 31.5456C280.954 32.1368 280.507 32.897 280.11 33.8345C279.713 34.772 279.392 35.8868 279.147 37.1875L279.071 37.5929C278.59 40.1858 278.623 42.2213 279.181 43.6993C279.738 45.1774 280.625 46.0304 281.833 46.25" fill="black"/>
<path d="M304.612 32.0862L310.11 34.0625C311.174 34.4426 312.086 34.9409 312.838 35.5574C313.598 36.174 314.164 36.8834 314.544 37.6858C314.882 38.4122 315.059 39.2145 315.076 40.1098C315.093 41.0051 314.916 41.951 314.552 42.9561L314.502 43.1081C313.953 44.6453 313.167 45.7686 312.162 46.4696C311.149 47.1706 310.059 47.5676 308.868 47.652L309.924 57.3395L306.351 56.0557L305.448 47.3226C305.346 47.3057 305.211 47.272 305.051 47.2128L303.041 46.4949L300.38 53.9105L297.188 52.7618L304.62 32.0777L304.612 32.0862ZM305.921 44.3328C307.323 44.8395 308.463 44.8564 309.35 44.3919C310.236 43.9274 310.887 43.1335 311.292 42.0101C311.74 40.7686 311.74 39.7128 311.292 38.8429C310.845 37.9814 310 37.3226 308.758 36.875L306.748 36.1571L304.054 43.6655L305.912 44.3328H305.921Z" fill="black"/>
<path d="M327.627 41.4105L337.39 46.647L335.912 49.4172L329.105 45.7601L326.166 51.2416L332.221 54.4932L330.752 57.2297L324.696 53.978L321.681 59.5946L328.598 63.3108L327.111 66.0726L317.238 60.777L327.627 41.4105Z" fill="black"/>
<path d="M338.108 73.7669C337.23 73.125 336.47 72.3058 335.828 71.326C335.186 70.3378 334.755 69.1132 334.527 67.652L337.728 66.7314C337.787 67.1115 337.863 67.5085 337.964 67.9139C338.066 68.3277 338.201 68.7247 338.361 69.1216C338.53 69.5101 338.733 69.8987 338.986 70.2618C339.24 70.625 339.552 70.946 339.924 71.2162C340.667 71.7568 341.419 71.9679 342.171 71.8497C342.922 71.723 343.53 71.3429 344.003 70.701L344.02 70.6757C344.189 70.4392 344.333 70.1858 344.426 69.9071C344.527 69.6284 344.561 69.299 344.527 68.9105C344.493 68.522 344.409 68.0659 344.248 67.5422C344.088 67.0101 343.86 66.3767 343.547 65.625C343.133 64.6706 342.804 63.8007 342.559 63.0152C342.314 62.2297 342.187 61.4949 342.162 60.8193C342.137 60.1436 342.213 59.5017 342.39 58.9105C342.568 58.3108 342.863 57.728 343.285 57.1537L343.319 57.1031C343.826 56.4105 344.417 55.8615 345.093 55.4476C345.769 55.0338 346.495 54.7889 347.255 54.696C348.024 54.6115 348.801 54.6706 349.603 54.8987C350.397 55.1183 351.182 55.5068 351.943 56.0642C352.686 56.6047 353.353 57.3226 353.936 58.201C354.519 59.0794 354.907 60.1351 355.101 61.3683L351.892 62.2466C351.791 61.571 351.588 60.8953 351.309 60.2027C351.022 59.5101 350.574 58.9443 349.966 58.4966C349.307 58.0152 348.632 57.8125 347.939 57.8885C347.247 57.9645 346.689 58.2939 346.267 58.8683L346.25 58.8936C346.056 59.1639 345.904 59.4426 345.811 59.7382C345.718 60.0338 345.684 60.3801 345.718 60.7939C345.752 61.2078 345.861 61.7145 346.056 62.3058C346.242 62.897 346.52 63.6233 346.875 64.4848C347.255 65.4139 347.551 66.25 347.762 67.0017C347.965 67.7534 348.066 68.446 348.066 69.0879C348.066 69.7297 347.965 70.3379 347.77 70.8953C347.576 71.4527 347.28 72.0186 346.875 72.576L346.841 72.6267C346.326 73.3362 345.709 73.902 345 74.3159C344.291 74.7297 343.547 74.9831 342.77 75.076C341.993 75.1689 341.199 75.1098 340.397 74.8902C339.595 74.6791 338.826 74.3074 338.1 73.7753" fill="black"/>
<path d="M162.709 264.786L145.769 278.785L147.91 281.377L164.85 267.378L162.709 264.786Z" fill="black"/>
<path d="M170.794 274.105L173.15 276.233L169.215 291.529L178.59 281.132L181.014 283.311L166.301 299.637L164.105 297.66L168.218 281.841L158.513 292.618L156.081 290.431L170.794 274.105Z" fill="black"/>
<path d="M187.863 288.404L192.179 291.039C193.361 291.757 194.299 292.618 195 293.623C195.701 294.628 196.14 295.726 196.334 296.917C196.52 298.108 196.453 299.383 196.115 300.735C195.777 302.086 195.177 303.48 194.299 304.907L194.054 305.313C193.184 306.74 192.213 307.922 191.157 308.843C190.101 309.772 189.003 310.422 187.846 310.794C186.698 311.174 185.515 311.275 184.307 311.115C183.1 310.954 181.9 310.507 180.718 309.789L176.402 307.154L187.855 288.395L187.863 288.404ZM189.155 292.796L180.912 306.301L182.28 307.137C183.708 308.007 185.203 308.167 186.748 307.618C188.294 307.069 189.747 305.684 191.098 303.471L191.275 303.176C191.951 302.069 192.424 301.03 192.703 300.059C192.973 299.088 193.074 298.201 192.981 297.399C192.897 296.596 192.644 295.878 192.221 295.245C191.799 294.612 191.233 294.071 190.524 293.632L189.155 292.796Z" fill="black"/>
<path d="M205.203 322.323C204.265 321.968 203.463 321.486 202.804 320.895C202.145 320.296 201.655 319.595 201.326 318.784C200.997 317.973 200.845 317.069 200.887 316.064C200.921 315.059 201.166 313.961 201.622 312.77L206.824 299.096L209.992 300.304L204.73 314.122C204.206 315.49 204.105 316.622 204.409 317.508C204.721 318.404 205.363 319.029 206.343 319.4C207.323 319.772 208.218 319.738 209.037 319.282C209.856 318.834 210.532 317.922 211.047 316.554L216.318 302.703L219.459 303.902L214.265 317.551C213.809 318.742 213.26 319.73 212.618 320.515C211.968 321.301 211.258 321.883 210.473 322.272C209.687 322.66 208.851 322.855 207.948 322.855C207.052 322.855 206.132 322.686 205.194 322.331" fill="black"/>
<path d="M228.184 328.826C227.111 328.615 226.081 328.201 225.084 327.584C224.088 326.968 223.167 326.039 222.34 324.814L224.84 322.61C225.059 322.931 225.296 323.252 225.566 323.581C225.836 323.91 226.123 324.215 226.444 324.502C226.765 324.789 227.111 325.042 227.5 325.262C227.88 325.481 228.302 325.642 228.75 325.726C229.654 325.904 230.422 325.777 231.047 325.338C231.672 324.907 232.061 324.299 232.213 323.514V323.48C232.272 323.193 232.289 322.905 232.264 322.61C232.23 322.314 232.128 322.002 231.934 321.664C231.74 321.326 231.461 320.954 231.098 320.541C230.726 320.127 230.245 319.654 229.645 319.105C228.86 318.421 228.193 317.77 227.635 317.162C227.078 316.554 226.647 315.946 226.343 315.346C226.03 314.747 225.828 314.139 225.735 313.522C225.642 312.905 225.659 312.247 225.794 311.554V311.495C225.971 310.65 226.267 309.899 226.706 309.24C227.145 308.581 227.686 308.041 228.345 307.635C228.995 307.23 229.73 306.951 230.549 306.816C231.36 306.672 232.238 306.698 233.159 306.875C234.062 307.052 234.966 307.416 235.878 307.965C236.782 308.514 237.584 309.299 238.285 310.329L235.76 312.492C235.38 311.926 234.916 311.394 234.358 310.895C233.801 310.397 233.159 310.068 232.416 309.932C231.613 309.78 230.912 309.882 230.321 310.245C229.73 310.608 229.367 311.14 229.231 311.841V311.875C229.164 312.204 229.147 312.525 229.189 312.829C229.223 313.133 229.35 313.471 229.552 313.826C229.764 314.189 230.076 314.595 230.498 315.051C230.921 315.507 231.478 316.047 232.171 316.672C232.914 317.348 233.539 317.981 234.046 318.573C234.552 319.164 234.932 319.747 235.211 320.329C235.481 320.912 235.65 321.503 235.718 322.086C235.785 322.677 235.752 323.311 235.625 323.986V324.046C235.448 324.907 235.135 325.676 234.671 326.36C234.206 327.035 233.649 327.584 232.981 327.998C232.314 328.412 231.571 328.699 230.752 328.843C229.932 328.995 229.079 328.986 228.201 328.809" fill="black"/>
<path d="M249.105 312.247L244.713 312.086L244.831 308.919L257.035 309.367L256.917 312.534L252.5 312.373L251.807 331.166L248.412 331.039L249.105 312.247Z" fill="black"/>
<path d="M264.603 309.037L270.397 308.294C271.52 308.15 272.559 308.176 273.514 308.387C274.468 308.59 275.296 308.961 275.997 309.51C276.63 310 277.154 310.633 277.576 311.427C277.998 312.221 278.269 313.142 278.404 314.198L278.421 314.35C278.632 315.971 278.446 317.323 277.863 318.412C277.289 319.502 276.486 320.355 275.473 320.971L280.828 329.113L277.061 329.595L272.28 322.23C272.179 322.264 272.044 322.289 271.883 322.314L269.764 322.584L270.769 330.405L267.407 330.836L264.603 309.037ZM271.334 319.341C272.804 319.155 273.834 318.649 274.417 317.829C275 317.01 275.211 316.014 275.059 314.823C274.89 313.514 274.409 312.568 273.623 312.002C272.838 311.436 271.782 311.233 270.473 311.402L268.353 311.672L269.367 319.586L271.326 319.333L271.334 319.341Z" fill="black"/>
<path d="M288.886 304.465L285.647 305.362L291.52 326.54L294.759 325.641L288.886 304.465Z" fill="black"/>
<path d="M301.917 299.688L305.042 298.302L319.764 315.921L316.579 317.331L313.269 313.269L307.382 315.878L308.201 321.047L305.127 322.407L301.917 299.688ZM311.292 310.845L305.532 303.75L306.9 312.796L311.292 310.845Z" fill="black"/>
<path d="M317.12 292.061L319.941 290.186L330.355 305.887L336.216 302.002L337.948 304.62L329.265 310.38L317.12 292.061Z" fill="black"/>
<path d="M331.731 281.613L339.907 274.13L342.027 276.444L336.326 281.655L340.524 286.242L345.591 281.596L347.694 283.894L342.618 288.539L346.926 293.235L352.72 287.939L354.831 290.253L346.571 297.821L331.731 281.613Z" fill="black"/>
<path d="M365.828 278.142C365.152 278.995 364.307 279.721 363.294 280.321C362.28 280.921 361.039 281.309 359.578 281.478L358.775 278.243C359.155 278.201 359.552 278.133 359.975 278.049C360.397 277.965 360.794 277.846 361.199 277.694C361.596 277.542 361.985 277.348 362.365 277.112C362.736 276.875 363.066 276.579 363.353 276.216C363.927 275.498 364.164 274.755 364.071 274.003C363.978 273.243 363.615 272.618 362.99 272.128L362.965 272.111C362.736 271.926 362.483 271.782 362.213 271.672C361.943 271.563 361.613 271.512 361.225 271.529C360.836 271.546 360.38 271.622 359.84 271.757C359.307 271.892 358.657 272.103 357.897 272.382C356.926 272.762 356.047 273.057 355.253 273.269C354.459 273.48 353.725 273.581 353.041 273.581C352.365 273.581 351.731 273.48 351.14 273.277C350.549 273.074 349.975 272.753 349.417 272.314L349.367 272.272C348.691 271.74 348.167 271.123 347.779 270.431C347.39 269.738 347.171 269.012 347.111 268.235C347.052 267.466 347.145 266.689 347.399 265.904C347.652 265.118 348.066 264.35 348.657 263.615C349.231 262.897 349.966 262.255 350.87 261.706C351.774 261.157 352.846 260.811 354.079 260.667L354.831 263.91C354.155 263.987 353.463 264.155 352.77 264.417C352.069 264.679 351.486 265.101 351.022 265.693C350.515 266.334 350.287 267.002 350.338 267.694C350.389 268.387 350.693 268.961 351.25 269.4L351.275 269.417C351.537 269.628 351.816 269.78 352.103 269.89C352.39 270 352.745 270.042 353.159 270.025C353.573 270.008 354.079 269.916 354.679 269.747C355.279 269.578 356.014 269.333 356.883 269.012C357.829 268.666 358.674 268.404 359.426 268.226C360.177 268.049 360.878 267.973 361.52 268.007C362.162 268.041 362.762 268.159 363.319 268.37C363.868 268.581 364.417 268.902 364.958 269.333L365.008 269.367C365.701 269.916 366.233 270.549 366.63 271.267C367.019 271.993 367.247 272.745 367.306 273.522C367.365 274.307 367.272 275.093 367.035 275.887C366.791 276.681 366.394 277.432 365.836 278.133" fill="black"/>
<path d="M449.403 128.432C450.384 129.027 451.021 130.031 451.319 131.436C451.82 133.79 451.396 136.47 450.036 139.454C449.059 141.561 447.618 143.473 445.716 145.207C444.089 146.693 442.726 147.552 441.643 147.783C440.561 148.013 439.911 147.676 439.718 146.767C439.621 146.313 439.706 145.941 439.981 145.649C440.458 145.211 441.429 144.296 442.877 142.901C443.579 142.182 443.848 141.46 443.695 140.741C443.58 140.196 443.086 139.498 442.221 138.637C441.347 137.777 440.809 136.83 440.586 135.781C440.238 134.145 440.461 132.509 441.253 130.873C442.044 129.236 443.391 128.216 445.291 127.812C446.836 127.484 448.21 127.693 449.403 128.432Z" fill="black"/>
<path d="M449.403 128.432C450.384 129.027 451.021 130.031 451.319 131.436C451.82 133.79 451.396 136.47 450.036 139.454C449.059 141.561 447.618 143.473 445.716 145.207C444.089 146.693 442.726 147.552 441.643 147.783C440.561 148.013 439.911 147.676 439.718 146.767C439.621 146.313 439.706 145.941 439.981 145.649C440.458 145.211 441.429 144.296 442.877 142.901C443.579 142.182 443.848 141.46 443.695 140.741C443.58 140.196 443.086 139.498 442.221 138.637C441.347 137.777 440.809 136.83 440.586 135.781C440.238 134.145 440.461 132.509 441.253 130.873C442.044 129.236 443.391 128.216 445.291 127.812C446.836 127.484 448.21 127.693 449.403 128.432Z" stroke="black" stroke-width="2.32264" stroke-miterlimit="10"/>
<path d="M475.397 142.922C477.829 142.753 479.966 143.345 481.807 144.679C484.071 146.275 485.203 148.682 485.203 151.909C485.203 154.848 483.59 157.728 480.363 160.557C477.137 163.387 473.361 165.245 469.046 166.123C469.299 172.162 468.75 176.605 467.407 179.451C463.505 187.669 456.444 191.774 446.216 191.774C440.6 191.774 436.453 190.346 433.767 187.5C431.883 185.49 430.938 183.057 430.938 180.203C430.938 177.897 431.563 175.861 432.821 174.105C434.206 172.137 436.073 171.064 438.421 170.895C440.177 170.769 441.664 171.275 442.889 172.407C443.936 173.454 444.459 174.654 444.459 175.988C444.459 176.782 444.248 177.458 443.834 177.998C443.117 178.834 442.407 179.679 441.698 180.515C441.191 181.14 440.946 181.9 440.946 182.779C440.946 185.625 442.416 187.052 445.346 187.052C445.726 187.052 446.123 187.035 446.537 186.985C450.684 186.52 453.429 185.16 454.772 182.897C456.284 180.296 457.035 175.059 457.035 167.179V165.422C451.883 163.91 448.15 161.377 445.845 157.813C444.797 156.216 444.274 154.797 444.274 153.539C444.274 152.407 444.755 151.757 445.718 151.588C445.971 151.546 446.225 151.529 446.47 151.529C447.39 151.529 448.066 151.951 448.48 152.787C448.775 153.623 449.062 154.485 449.358 155.363C450.405 158.378 453.066 160.6 457.34 162.027C458.176 155.87 460.38 151.106 463.944 147.753C467.044 144.814 470.861 143.201 475.389 142.914M468.851 162.787C472.373 161.993 475.16 160.296 477.213 157.694C478.809 155.642 479.603 153.775 479.603 152.103C479.603 148.454 478.201 146.63 475.389 146.63C474.046 146.63 472.644 147.508 471.174 149.274C469.206 151.664 468.345 154.916 468.598 159.02C468.767 161.664 468.851 162.922 468.851 162.796" fill="black"/>
<path d="M475.397 142.922C477.829 142.753 479.966 143.345 481.807 144.679C484.071 146.275 485.203 148.682 485.203 151.909C485.203 154.848 483.59 157.728 480.363 160.557C477.137 163.387 473.361 165.245 469.046 166.123C469.299 172.162 468.75 176.605 467.407 179.451C463.505 187.669 456.444 191.774 446.216 191.774C440.6 191.774 436.453 190.346 433.767 187.5C431.883 185.49 430.938 183.057 430.938 180.203C430.938 177.897 431.563 175.861 432.821 174.105C434.206 172.137 436.073 171.064 438.421 170.895C440.177 170.769 441.664 171.275 442.889 172.407C443.936 173.454 444.459 174.654 444.459 175.988C444.459 176.782 444.248 177.458 443.834 177.998C443.117 178.834 442.407 179.679 441.698 180.515C441.191 181.14 440.946 181.9 440.946 182.779C440.946 185.625 442.416 187.052 445.346 187.052C445.726 187.052 446.123 187.035 446.537 186.985C450.684 186.52 453.429 185.16 454.772 182.897C456.284 180.296 457.035 175.059 457.035 167.179V165.422C451.883 163.91 448.15 161.377 445.845 157.813C444.797 156.216 444.274 154.797 444.274 153.539C444.274 152.407 444.755 151.757 445.718 151.588C445.971 151.546 446.225 151.529 446.47 151.529C447.39 151.529 448.066 151.951 448.48 152.787C448.775 153.623 449.062 154.485 449.358 155.363C450.405 158.378 453.066 160.6 457.34 162.027C458.176 155.87 460.38 151.106 463.944 147.753C467.044 144.814 470.861 143.201 475.389 142.914L475.397 142.922ZM468.851 162.787C472.373 161.993 475.16 160.296 477.213 157.694C478.809 155.642 479.603 153.775 479.603 152.103C479.603 148.454 478.201 146.63 475.389 146.63C474.046 146.63 472.644 147.508 471.174 149.274C469.206 151.664 468.345 154.916 468.598 159.02C468.767 161.664 468.851 162.922 468.851 162.796V162.787Z" stroke="black" stroke-width="2.10304" stroke-miterlimit="10"/>
<path d="M427.297 184.561C428.682 182.939 430.684 179.992 432.441 175.135C432.373 175.16 432.306 175.186 432.247 175.228C435.008 168.421 436.639 160.524 436.36 154.865C435.929 145.76 430.397 140.363 421.917 140.769C409.079 141.377 400.921 155.008 397.517 167.635C390.65 180.608 384.84 186.537 382.128 186.655C382.01 186.664 381.959 186.655 381.934 186.655C381.833 186.486 380.988 184.831 383.623 177.289L388.59 163.243C390.524 157.551 391.309 153.919 391.182 151.132C390.929 145.802 387.162 142.424 381.791 142.677C379.62 142.779 376.647 143.429 373.218 145.574C373.294 145.405 373.581 144.172 364.899 144.713C361.9 145.11 359.35 147.179 358.345 150.059L351.52 169.654C344.595 182.728 338.75 188.716 336.022 188.86C335.895 188.86 335.811 188.86 335.811 188.86C335.693 188.691 334.899 187.044 337.534 179.502L346.36 154.223C347.838 150.008 344.586 145.65 340.118 145.87C338.834 145.929 337.644 146.368 336.672 147.111C335.693 147.829 334.924 148.851 334.485 150.068L327.171 170.98C324.662 175.743 317.297 189.595 313.868 189.899C313.708 189.552 313.108 187.627 315.574 180.532L319.223 170.152C319.949 168.117 320.279 166.284 320.203 164.721C319.958 159.426 315.101 155.878 311.216 153.032C310.414 152.449 309.654 151.892 308.97 151.36L309.198 150.743C310.042 148.446 310.068 145.912 309.24 143.606C308.767 142.289 308.091 140.938 307.035 139.975C305.735 138.775 304.088 138.64 302.5 139.383C300.372 140.372 298.564 142.306 297.28 144.231C296.03 146.073 295.177 148.277 295.287 150.532C295.389 152.644 296.309 154.637 298.108 156.605C295.515 163.057 293.142 168.395 291.208 172.103C286.867 180.583 281.622 186.807 274.527 191.74L281.258 172.61L286.74 157.01C288.218 152.821 284.975 148.463 280.532 148.691C278.294 148.784 276.191 150.093 275.169 152.044C275.152 152.061 275.152 152.069 275.135 152.086C275.135 152.086 275.042 152.365 275.017 152.331C272.508 149.147 268.539 148.057 265.312 148.209C252.365 148.818 245.836 168.606 244.062 175.025C237.787 186.554 229.181 193.927 221.554 194.291C219.206 194.4 217.601 193.851 216.647 192.618C215.059 190.541 215.481 186.723 216.005 184.417C228.801 184.89 236.073 180.811 240.211 170.971C242.948 164.535 242.905 158.75 240.076 154.688C237.787 151.394 233.953 149.713 229.291 149.924C217.061 150.507 208.083 163.953 204.552 177.095C197.753 189.856 192.002 195.701 189.316 195.819C189.189 195.828 189.122 195.819 189.105 195.836C189.003 195.667 188.201 194.003 190.828 186.461L206.149 142.644C207.61 138.438 204.358 134.079 199.907 134.291C198.623 134.35 197.432 134.797 196.444 135.532C195.465 136.267 194.688 137.289 194.265 138.505L180.473 177.956C173.59 190.929 167.77 196.85 165.068 196.976C164.941 196.985 164.873 196.976 164.856 196.993C164.738 196.824 163.953 195.16 166.579 187.635L181.892 143.801C183.361 139.595 180.118 135.236 175.659 135.448C174.375 135.507 173.184 135.954 172.196 136.689C171.208 137.432 170.439 138.446 170.017 139.662L156.233 179.054C149.941 190.676 141.309 198.125 133.649 198.488C131.284 198.59 129.696 198.049 128.75 196.816C127.162 194.738 127.584 190.921 128.108 188.615C140.887 189.088 148.176 185.008 152.297 175.169C155.051 168.733 155 162.948 152.179 158.894C149.882 155.591 146.056 153.919 141.394 154.139C124.248 154.949 114.493 180.422 115.118 193.471C115.6 203.59 121.596 208.885 132.01 208.387C139.409 208.032 146.216 204.856 152.323 198.961C152.677 201.14 153.514 202.905 154.797 204.231C156.681 206.174 159.426 207.069 162.965 206.9C167.728 206.681 172.28 204.096 176.85 199.046C177.314 200.735 178.1 202.128 179.206 203.226C181.09 205.068 183.784 205.921 187.213 205.752C192.922 205.481 198.404 201.774 203.894 194.476C205.963 201.174 211.503 204.603 219.907 204.206C227.998 203.818 235.389 200.068 241.9 193.083C242.931 199.13 247.044 202.905 252.61 202.644C252.753 202.644 252.897 202.61 253.032 202.618C251.47 203.378 249.907 204.155 248.657 204.89C241.85 208.37 238.209 213.015 238.1 218.311C238.1 218.497 238.1 218.674 238.1 218.86C238.15 221.529 239.13 223.86 240.904 225.608C243.024 227.677 246.166 228.716 249.772 228.547C256.943 228.218 261.351 223.784 264.535 217.948C265.861 215.566 266.968 212.956 267.981 210.296C268.919 207.779 269.738 205.405 270.118 204.265C278.522 199.789 289.78 193.488 298.488 176.436C301.014 171.47 303.176 166.478 304.882 162.323C306.301 163.471 307.331 164.451 307.356 165.169C307.356 165.236 307.373 165.929 306.791 167.635L303.784 176.064C300.397 185.515 300.169 192.314 303.117 196.309C304.966 198.792 307.905 200.008 311.655 199.831C315.878 199.637 319.78 197.348 323.716 192.72C324.215 194.172 324.966 195.397 325.98 196.351C327.872 198.125 330.515 198.944 333.885 198.775C336.791 198.632 339.611 197.627 342.416 195.701C342.416 195.701 344.654 197.01 350.878 196.639C353.877 196.005 356.377 193.851 357.399 190.878L367.88 160.878C371.622 156.377 375.355 154.628 376.976 154.544C377.483 154.527 377.72 154.662 377.745 154.738C377.804 155.735 376.664 159.012 375.465 162.466L371.841 172.821C368.488 182.365 368.243 189.172 371.14 193.057C372.441 194.789 375.017 196.816 379.975 196.563C385.625 196.301 391.056 192.686 396.478 185.541C398.302 191.867 403.302 195.456 410.287 195.127C415.836 194.856 420.929 192.103 425.22 187.111C425.22 187.111 426.892 185.152 427.264 184.569M229.206 161.47C229.814 161.444 229.992 161.579 229.992 161.579C229.992 161.579 230.693 162.584 228.682 167.483C226.647 172.466 224.155 175.617 218.514 175.591C220.355 170.498 224.51 161.698 229.206 161.47ZM141.309 165.667C141.917 165.642 142.078 165.76 142.095 165.76C142.095 165.76 142.796 166.765 140.769 171.681C138.75 176.664 136.25 179.806 130.617 179.772C132.458 174.679 136.605 165.878 141.309 165.667ZM251.647 218.37C249.949 220.093 248.353 220.921 247.061 221.039C245.557 221.098 245.532 220.439 245.515 220.152C245.498 219.789 245.566 219.265 245.929 218.573C246.546 217.356 248.032 215.608 251.368 213.294C253.218 212.052 255.084 211.022 257.019 210.076C255.236 213.919 253.378 216.613 251.639 218.37M268.978 169.679C268.564 170.87 268.142 172.069 267.728 173.26L264.789 181.639C264.426 182.652 263.953 183.606 263.37 184.493C261.664 187.01 258.59 190.701 255.743 190.836C255.084 190.87 254.519 190.887 254.426 188.927C254.291 186.081 255 183.159 255.693 180.422C256.647 176.664 257.914 172.99 259.535 169.468C260.659 167.01 261.968 164.544 263.767 162.5C264.814 161.301 266.562 159.696 268.311 159.924C269.916 160.135 270.633 162.01 270.718 163.438C270.819 165.633 269.688 167.66 268.986 169.679M421.689 167.5C420.084 167.644 418.564 168.328 417.39 169.451C415.785 170.946 414.924 173.083 415.025 175.296C415.093 176.799 415.6 178.218 416.453 179.4C414.324 182.813 412.111 184.856 410.397 184.941C408.378 185.034 408.032 182.399 407.981 181.258C407.551 172.441 415.718 151.225 422.035 150.921C423.336 150.845 424.054 152.027 424.164 154.417C424.299 157.348 423.353 162.272 421.689 167.492" fill="black"/>
<path d="M491.064 187.052C492.458 195.16 490.372 200.431 485.329 206.63C479.434 213.885 469.172 218.125 458.818 219.147C408.361 224.122 364.958 225.465 319.012 226.892C311.03 227.128 274.113 228.378 266.014 228.649C265.904 228.649 265.802 228.657 265.693 228.657C267.855 226.579 269.772 224.003 271.444 220.937C272.111 219.73 272.72 218.497 273.26 217.314C278.801 217.128 313.201 215.98 318.682 215.802C364.434 214.392 407.652 213.049 457.745 208.108C465.084 207.373 472.247 205.456 476.225 200.549C479.409 196.639 480.878 193.438 480.059 188.218C480.059 188.218 478.758 180.802 469.139 182.323C469.139 182.323 463.319 191.436 453.691 191.689L453.437 187.128C453.437 187.128 471.41 176.748 468.885 173.201C468.885 173.201 487.872 168.387 491.081 187.044" fill="black"/>
</g>
</svg>
